<mxfile host="Electron" agent="Mozilla/5.0 (Windows NT 10.0; Win64; x64) AppleWebKit/537.36 (KHTML, like Gecko) draw.io/24.7.8 Chrome/128.0.6613.36 Electron/32.0.1 Safari/537.36" version="24.7.8" pages="3">
  <diagram name="SSH keygen" id="iUCnVp11YIpFn9JJGyvx">
    <mxGraphModel dx="662" dy="433" grid="1" gridSize="10" guides="1" tooltips="1" connect="1" arrows="1" fold="1" page="1" pageScale="1" pageWidth="827" pageHeight="1169" math="0" shadow="0">
      <root>
        <mxCell id="lK4NzUjbW2tlGAStXTbC-0" />
        <mxCell id="lK4NzUjbW2tlGAStXTbC-1" parent="lK4NzUjbW2tlGAStXTbC-0" />
        <mxCell id="lK4NzUjbW2tlGAStXTbC-17" value="" style="html=1;verticalLabelPosition=bottom;align=left;labelBackgroundColor=#ffffff;verticalAlign=top;strokeWidth=2;strokeColor=#0080F0;shadow=0;dashed=0;shape=mxgraph.ios7.icons.folder;" vertex="1" parent="lK4NzUjbW2tlGAStXTbC-1">
          <mxGeometry x="270" y="450" width="253.75" height="160" as="geometry" />
        </mxCell>
        <mxCell id="lK4NzUjbW2tlGAStXTbC-18" value="" style="html=1;verticalLabelPosition=bottom;align=center;labelBackgroundColor=#ffffff;verticalAlign=top;strokeWidth=2;strokeColor=#0080F0;shadow=0;dashed=0;shape=mxgraph.ios7.icons.folder;" vertex="1" parent="lK4NzUjbW2tlGAStXTbC-1">
          <mxGeometry x="240" y="80" width="210" height="300" as="geometry" />
        </mxCell>
        <mxCell id="lK4NzUjbW2tlGAStXTbC-20" value="&lt;b&gt;authorized_keys&lt;/b&gt;" style="rounded=1;whiteSpace=wrap;html=1;verticalAlign=top;" vertex="1" parent="lK4NzUjbW2tlGAStXTbC-1">
          <mxGeometry x="270" y="160" width="160" height="190" as="geometry" />
        </mxCell>
        <mxCell id="lK4NzUjbW2tlGAStXTbC-21" value="&lt;b&gt;my_ssh_key&lt;/b&gt;" style="rounded=1;whiteSpace=wrap;html=1;" vertex="1" parent="lK4NzUjbW2tlGAStXTbC-1">
          <mxGeometry x="336.88" y="545" width="136.25" height="40" as="geometry" />
        </mxCell>
        <mxCell id="lK4NzUjbW2tlGAStXTbC-22" value="&lt;b&gt;my_ssh_key.pub&lt;/b&gt;" style="rounded=1;whiteSpace=wrap;html=1;" vertex="1" parent="lK4NzUjbW2tlGAStXTbC-1">
          <mxGeometry x="336.88" y="490" width="132.5" height="40" as="geometry" />
        </mxCell>
        <mxCell id="lK4NzUjbW2tlGAStXTbC-23" value="SSH Client" style="text;html=1;align=center;verticalAlign=middle;whiteSpace=wrap;rounded=0;fontSize=15;fontStyle=1" vertex="1" parent="lK4NzUjbW2tlGAStXTbC-1">
          <mxGeometry x="156.25" y="510" width="110" height="30" as="geometry" />
        </mxCell>
        <mxCell id="lK4NzUjbW2tlGAStXTbC-24" value="&lt;font style=&quot;font-size: 15px;&quot;&gt;SSH Server&lt;/font&gt;" style="text;html=1;align=center;verticalAlign=middle;whiteSpace=wrap;rounded=0;fontStyle=1" vertex="1" parent="lK4NzUjbW2tlGAStXTbC-1">
          <mxGeometry x="120" y="310" width="110" height="30" as="geometry" />
        </mxCell>
        <mxCell id="lK4NzUjbW2tlGAStXTbC-25" value="" style="points=[[0,0.5,0],[0.24,0,0],[0.5,0.28,0],[0.995,0.475,0],[0.5,0.72,0],[0.24,1,0]];verticalLabelPosition=bottom;sketch=0;html=1;verticalAlign=top;aspect=fixed;align=center;pointerEvents=1;shape=mxgraph.cisco19.key;fillColor=#e51400;strokeColor=#B20000;fontColor=#ffffff;" vertex="1" parent="lK4NzUjbW2tlGAStXTbC-1">
          <mxGeometry x="386" y="580" width="50" height="22.5" as="geometry" />
        </mxCell>
        <mxCell id="lK4NzUjbW2tlGAStXTbC-28" value="&lt;b&gt;others_ssh_key.pub&lt;/b&gt;" style="rounded=1;whiteSpace=wrap;html=1;" vertex="1" parent="lK4NzUjbW2tlGAStXTbC-1">
          <mxGeometry x="283.75" y="210" width="132.5" height="40" as="geometry" />
        </mxCell>
        <mxCell id="lK4NzUjbW2tlGAStXTbC-29" value="" style="points=[[0,0.5,0],[0.24,0,0],[0.5,0.28,0],[0.995,0.475,0],[0.5,0.72,0],[0.24,1,0]];verticalLabelPosition=bottom;sketch=0;html=1;verticalAlign=top;aspect=fixed;align=center;pointerEvents=1;shape=mxgraph.cisco19.key;fillColor=#60a917;strokeColor=#2D7600;fontColor=#ffffff;" vertex="1" parent="lK4NzUjbW2tlGAStXTbC-1">
          <mxGeometry x="330" y="237.5" width="50" height="22.5" as="geometry" />
        </mxCell>
        <mxCell id="lK4NzUjbW2tlGAStXTbC-30" value="&lt;font style=&quot;font-size: 14px;&quot;&gt;Step 1: Use &lt;b&gt;ssh-keygen &lt;/b&gt;to generate SSH key pair&lt;/font&gt;" style="text;html=1;align=center;verticalAlign=middle;whiteSpace=wrap;rounded=0;" vertex="1" parent="lK4NzUjbW2tlGAStXTbC-1">
          <mxGeometry x="529" y="530" width="197.75" height="40" as="geometry" />
        </mxCell>
        <mxCell id="V1mUW21Su0HTVD1wGN8N-0" value="&lt;span style=&quot;color: rgb(0, 0, 0); font-family: Helvetica; font-size: 12px; font-style: normal; font-variant-ligatures: normal; font-variant-caps: normal; font-weight: 400; letter-spacing: normal; orphans: 2; text-align: left; text-indent: 0px; text-transform: none; widows: 2; word-spacing: 0px; -webkit-text-stroke-width: 0px; white-space: nowrap; background-color: rgb(255, 255, 255); text-decoration-thickness: initial; text-decoration-style: initial; text-decoration-color: initial; display: inline !important; float: none;&quot;&gt;~/.ssh&lt;/span&gt;" style="text;whiteSpace=wrap;html=1;" vertex="1" parent="lK4NzUjbW2tlGAStXTbC-1">
          <mxGeometry x="277.5" y="450" width="60" height="40" as="geometry" />
        </mxCell>
        <mxCell id="V1mUW21Su0HTVD1wGN8N-1" value="&lt;span style=&quot;color: rgb(0, 0, 0); font-family: Helvetica; font-size: 12px; font-style: normal; font-variant-ligatures: normal; font-variant-caps: normal; font-weight: 400; letter-spacing: normal; orphans: 2; text-align: left; text-indent: 0px; text-transform: none; widows: 2; word-spacing: 0px; -webkit-text-stroke-width: 0px; white-space: nowrap; background-color: rgb(255, 255, 255); text-decoration-thickness: initial; text-decoration-style: initial; text-decoration-color: initial; display: inline !important; float: none;&quot;&gt;~/.ssh&lt;/span&gt;" style="text;whiteSpace=wrap;html=1;" vertex="1" parent="lK4NzUjbW2tlGAStXTbC-1">
          <mxGeometry x="243.75" y="90" width="60" height="40" as="geometry" />
        </mxCell>
        <mxCell id="V1mUW21Su0HTVD1wGN8N-2" value="&lt;b&gt;my_ssh_key.pub&lt;/b&gt;" style="rounded=1;whiteSpace=wrap;html=1;dashed=1;" vertex="1" parent="lK4NzUjbW2tlGAStXTbC-1">
          <mxGeometry x="283.75" y="280" width="132.5" height="40" as="geometry" />
        </mxCell>
        <mxCell id="V1mUW21Su0HTVD1wGN8N-3" value="" style="endArrow=classic;html=1;rounded=0;exitX=0.5;exitY=0;exitDx=0;exitDy=0;entryX=0.24;entryY=1;entryDx=0;entryDy=0;entryPerimeter=0;dashed=1;strokeWidth=2;fillColor=#60a917;strokeColor=#2D7600;" edge="1" parent="lK4NzUjbW2tlGAStXTbC-1" source="lK4NzUjbW2tlGAStXTbC-22" target="lK4NzUjbW2tlGAStXTbC-26">
          <mxGeometry width="50" height="50" relative="1" as="geometry">
            <mxPoint x="360" y="430" as="sourcePoint" />
            <mxPoint x="410" y="380" as="targetPoint" />
          </mxGeometry>
        </mxCell>
        <mxCell id="V1mUW21Su0HTVD1wGN8N-4" value="&lt;font style=&quot;font-size: 14px;&quot;&gt;Step 2: Use &lt;b&gt;ssh-copy-id&lt;/b&gt; to copy &lt;i&gt;public&lt;/i&gt; key onto the remote SSH server&lt;/font&gt;" style="text;html=1;align=center;verticalAlign=middle;whiteSpace=wrap;rounded=0;" vertex="1" parent="lK4NzUjbW2tlGAStXTbC-1">
          <mxGeometry x="386" y="400" width="197.75" height="40" as="geometry" />
        </mxCell>
        <mxCell id="V1mUW21Su0HTVD1wGN8N-5" value="" style="points=[[0,0.5,0],[0.24,0,0],[0.5,0.28,0],[0.995,0.475,0],[0.5,0.72,0],[0.24,1,0]];verticalLabelPosition=bottom;sketch=0;html=1;verticalAlign=top;aspect=fixed;align=center;pointerEvents=1;shape=mxgraph.cisco19.key;fillColor=#60a917;strokeColor=#2D7600;fontColor=#ffffff;" vertex="1" parent="lK4NzUjbW2tlGAStXTbC-1">
          <mxGeometry x="386" y="517.5" width="50" height="22.5" as="geometry" />
        </mxCell>
        <mxCell id="lK4NzUjbW2tlGAStXTbC-26" value="" style="points=[[0,0.5,0],[0.24,0,0],[0.5,0.28,0],[0.995,0.475,0],[0.5,0.72,0],[0.24,1,0]];verticalLabelPosition=bottom;sketch=0;html=1;verticalAlign=top;aspect=fixed;align=center;pointerEvents=1;shape=mxgraph.cisco19.key;fillColor=#60a917;strokeColor=#2D7600;fontColor=#ffffff;" vertex="1" parent="lK4NzUjbW2tlGAStXTbC-1">
          <mxGeometry x="330" y="310" width="50" height="22.5" as="geometry" />
        </mxCell>
      </root>
    </mxGraphModel>
  </diagram>
  <diagram id="aum4mBxojrqef6WY8mTK" name="SSH login">
    <mxGraphModel dx="662" dy="1602" grid="1" gridSize="10" guides="1" tooltips="1" connect="1" arrows="1" fold="1" page="1" pageScale="1" pageWidth="827" pageHeight="1169" math="0" shadow="0">
      <root>
        <mxCell id="0" />
        <mxCell id="1" parent="0" />
        <mxCell id="Sa13-DUwm0u2MAatxqdD-1" value="" style="html=1;verticalLabelPosition=bottom;align=left;labelBackgroundColor=#ffffff;verticalAlign=top;strokeWidth=2;strokeColor=#0080F0;shadow=0;dashed=0;shape=mxgraph.ios7.icons.folder;" vertex="1" parent="1">
          <mxGeometry x="271.75" y="-570" width="378" height="130" as="geometry" />
        </mxCell>
        <mxCell id="Sa13-DUwm0u2MAatxqdD-2" value="" style="html=1;verticalLabelPosition=bottom;align=center;labelBackgroundColor=#ffffff;verticalAlign=top;strokeWidth=2;strokeColor=#0080F0;shadow=0;dashed=0;shape=mxgraph.ios7.icons.folder;" vertex="1" parent="1">
          <mxGeometry x="274.25" y="-930" width="210" height="280" as="geometry" />
        </mxCell>
        <mxCell id="Sa13-DUwm0u2MAatxqdD-3" value="&lt;b&gt;authorized_keys&lt;/b&gt;" style="rounded=1;whiteSpace=wrap;html=1;verticalAlign=top;" vertex="1" parent="1">
          <mxGeometry x="300" y="-860" width="160" height="190" as="geometry" />
        </mxCell>
        <mxCell id="Sa13-DUwm0u2MAatxqdD-4" value="&lt;b&gt;my_ssh_key&lt;/b&gt;" style="rounded=1;whiteSpace=wrap;html=1;" vertex="1" parent="1">
          <mxGeometry x="315.5" y="-515" width="136.25" height="40" as="geometry" />
        </mxCell>
        <mxCell id="Sa13-DUwm0u2MAatxqdD-6" value="SSH Client" style="text;html=1;align=center;verticalAlign=middle;whiteSpace=wrap;rounded=0;fontSize=15;fontStyle=1" vertex="1" parent="1">
          <mxGeometry x="158" y="-510" width="110" height="30" as="geometry" />
        </mxCell>
        <mxCell id="Sa13-DUwm0u2MAatxqdD-7" value="&lt;font style=&quot;font-size: 15px;&quot;&gt;SSH Server&lt;/font&gt;" style="text;html=1;align=center;verticalAlign=middle;whiteSpace=wrap;rounded=0;fontStyle=1" vertex="1" parent="1">
          <mxGeometry x="150" y="-710" width="110" height="30" as="geometry" />
        </mxCell>
        <mxCell id="Sa13-DUwm0u2MAatxqdD-8" value="" style="points=[[0,0.5,0],[0.24,0,0],[0.5,0.28,0],[0.995,0.475,0],[0.5,0.72,0],[0.24,1,0]];verticalLabelPosition=bottom;sketch=0;html=1;verticalAlign=top;aspect=fixed;align=center;pointerEvents=1;shape=mxgraph.cisco19.key;fillColor=#e51400;strokeColor=#B20000;fontColor=#ffffff;" vertex="1" parent="1">
          <mxGeometry x="362" y="-481.25" width="50" height="22.5" as="geometry" />
        </mxCell>
        <mxCell id="Sa13-DUwm0u2MAatxqdD-9" value="&lt;b&gt;others_ssh_key.pub&lt;/b&gt;" style="rounded=1;whiteSpace=wrap;html=1;" vertex="1" parent="1">
          <mxGeometry x="313.75" y="-810" width="132.5" height="40" as="geometry" />
        </mxCell>
        <mxCell id="Sa13-DUwm0u2MAatxqdD-10" value="" style="points=[[0,0.5,0],[0.24,0,0],[0.5,0.28,0],[0.995,0.475,0],[0.5,0.72,0],[0.24,1,0]];verticalLabelPosition=bottom;sketch=0;html=1;verticalAlign=top;aspect=fixed;align=center;pointerEvents=1;shape=mxgraph.cisco19.key;fillColor=#60a917;strokeColor=#2D7600;fontColor=#ffffff;" vertex="1" parent="1">
          <mxGeometry x="360" y="-782.5" width="50" height="22.5" as="geometry" />
        </mxCell>
        <mxCell id="Sa13-DUwm0u2MAatxqdD-12" value="&lt;span style=&quot;color: rgb(0, 0, 0); font-family: Helvetica; font-size: 12px; font-style: normal; font-variant-ligatures: normal; font-variant-caps: normal; font-weight: 400; letter-spacing: normal; orphans: 2; text-align: left; text-indent: 0px; text-transform: none; widows: 2; word-spacing: 0px; -webkit-text-stroke-width: 0px; white-space: nowrap; background-color: rgb(255, 255, 255); text-decoration-thickness: initial; text-decoration-style: initial; text-decoration-color: initial; display: inline !important; float: none;&quot;&gt;~/.ssh&lt;/span&gt;" style="text;whiteSpace=wrap;html=1;" vertex="1" parent="1">
          <mxGeometry x="279.25" y="-570" width="60" height="40" as="geometry" />
        </mxCell>
        <mxCell id="Sa13-DUwm0u2MAatxqdD-13" value="&lt;span style=&quot;color: rgb(0, 0, 0); font-family: Helvetica; font-size: 12px; font-style: normal; font-variant-ligatures: normal; font-variant-caps: normal; font-weight: 400; letter-spacing: normal; orphans: 2; text-align: left; text-indent: 0px; text-transform: none; widows: 2; word-spacing: 0px; -webkit-text-stroke-width: 0px; white-space: nowrap; background-color: rgb(255, 255, 255); text-decoration-thickness: initial; text-decoration-style: initial; text-decoration-color: initial; display: inline !important; float: none;&quot;&gt;~/.ssh&lt;/span&gt;" style="text;whiteSpace=wrap;html=1;" vertex="1" parent="1">
          <mxGeometry x="274.25" y="-910" width="60" height="40" as="geometry" />
        </mxCell>
        <mxCell id="Sa13-DUwm0u2MAatxqdD-14" value="&lt;b&gt;my_ssh_key.pub&lt;/b&gt;" style="rounded=1;whiteSpace=wrap;html=1;" vertex="1" parent="1">
          <mxGeometry x="313.75" y="-740" width="132.5" height="40" as="geometry" />
        </mxCell>
        <mxCell id="Sa13-DUwm0u2MAatxqdD-15" value="" style="endArrow=classic;html=1;rounded=0;exitX=0.5;exitY=0;exitDx=0;exitDy=0;entryX=0.5;entryY=0.72;entryDx=0;entryDy=0;entryPerimeter=0;dashed=1;strokeWidth=2;fillColor=#60a917;strokeColor=#2D7600;" edge="1" parent="1" source="Sa13-DUwm0u2MAatxqdD-4" target="Sa13-DUwm0u2MAatxqdD-18">
          <mxGeometry width="50" height="50" relative="1" as="geometry">
            <mxPoint x="433.1300000000001" y="-530" as="sourcePoint" />
            <mxPoint x="440" y="-640" as="targetPoint" />
          </mxGeometry>
        </mxCell>
        <mxCell id="Sa13-DUwm0u2MAatxqdD-16" value="&lt;font style=&quot;font-size: 14px;&quot;&gt;Step 3: Use &lt;b&gt;ssh -i my_ssh_key &lt;/b&gt;to login&lt;/font&gt;" style="text;html=1;align=center;verticalAlign=middle;whiteSpace=wrap;rounded=0;" vertex="1" parent="1">
          <mxGeometry x="389.25" y="-620" width="170" height="40" as="geometry" />
        </mxCell>
        <mxCell id="Sa13-DUwm0u2MAatxqdD-18" value="" style="points=[[0,0.5,0],[0.24,0,0],[0.5,0.28,0],[0.995,0.475,0],[0.5,0.72,0],[0.24,1,0]];verticalLabelPosition=bottom;sketch=0;html=1;verticalAlign=top;aspect=fixed;align=center;pointerEvents=1;shape=mxgraph.cisco19.key;fillColor=#60a917;strokeColor=#2D7600;fontColor=#ffffff;" vertex="1" parent="1">
          <mxGeometry x="360" y="-710" width="50" height="22.5" as="geometry" />
        </mxCell>
        <mxCell id="VuglE8LGRLZulxFKkoFZ-4" value="&lt;b&gt;known_hosts&lt;/b&gt;" style="rounded=1;whiteSpace=wrap;html=1;" vertex="1" parent="1">
          <mxGeometry x="493.75" y="-515" width="120" height="40" as="geometry" />
        </mxCell>
        <mxCell id="5YgMNUQoUawWeSXDFbc2-3" value="Details: exchange a random number to authenticate" style="shape=callout;whiteSpace=wrap;html=1;perimeter=calloutPerimeter;base=20;size=23;position=0.25;position2=0.17;fillColor=#fff2cc;strokeColor=#d6b656;" vertex="1" parent="1">
          <mxGeometry x="548" y="-687" width="120" height="80" as="geometry" />
        </mxCell>
      </root>
    </mxGraphModel>
  </diagram>
  <diagram id="MOYvvaj06LG8S4OBt4_B" name="Github notes">
    <mxGraphModel dx="548" dy="358" grid="1" gridSize="10" guides="1" tooltips="1" connect="1" arrows="1" fold="1" page="1" pageScale="1" pageWidth="827" pageHeight="1169" math="0" shadow="0">
      <root>
        <mxCell id="0" />
        <mxCell id="1" parent="0" />
        <mxCell id="eGsjgR39DsMM3BuA3Zus-1" value="&lt;h1 style=&quot;margin-top: 0px;&quot;&gt;Notice for Github SSH&lt;span style=&quot;background-color: initial; font-size: 12px; font-weight: normal;&quot;&gt;&amp;nbsp;&lt;/span&gt;&lt;/h1&gt;&lt;p&gt;1. By default, git push command will search SSH keys under directory: ~/.ssh&lt;/p&gt;&lt;p&gt;2.&amp;nbsp;&lt;span style=&quot;background-color: initial;&quot;&gt;By default, git push command will match&amp;nbsp;&lt;/span&gt;&lt;span style=&quot;background-color: initial;&quot;&gt;SSH key files with naming format as follow:&amp;nbsp;&lt;/span&gt;&lt;/p&gt;&lt;p&gt;&lt;span style=&quot;white-space: pre;&quot;&gt;&#x9;&lt;/span&gt;&lt;span style=&quot;background-color: rgb(224, 224, 224);&quot;&gt;id_[rsa|ecdsa|ed25519]&lt;/span&gt;&lt;/p&gt;&lt;p&gt;3. You may override the default behaviour by adding the custom SSH key file location and naming to the local git config file&lt;/p&gt;&lt;p&gt;&lt;span style=&quot;background-color: initial;&quot;&gt;4. Test all of the above via commands:&lt;/span&gt;&lt;/p&gt;&lt;p&gt;&lt;span style=&quot;background-color: initial;&quot;&gt;&lt;span style=&quot;white-space: pre;&quot;&gt;&#x9;&lt;/span&gt;`&lt;/span&gt;&lt;span style=&quot;background-color: rgb(224, 224, 224);&quot;&gt;ssh vT git@github.com&lt;/span&gt;&lt;span style=&quot;background-color: initial;&quot;&gt;`&lt;/span&gt;&lt;br&gt;&lt;/p&gt;&lt;p&gt;&lt;span style=&quot;background-color: initial;&quot;&gt;&lt;span style=&quot;white-space: pre;&quot;&gt;&#x9;&lt;/span&gt;&lt;/span&gt;&lt;span style=&quot;background-color: initial;&quot;&gt;`&lt;/span&gt;&lt;span style=&quot;background-color: rgb(224, 224, 224);&quot;&gt;ssh -i C:\Users\User\.ssh\custom_privateKey -vT git@github.com&lt;/span&gt;&lt;span style=&quot;background-color: initial;&quot;&gt;`&lt;/span&gt;&lt;/p&gt;" style="text;html=1;whiteSpace=wrap;overflow=hidden;rounded=0;" vertex="1" parent="1">
          <mxGeometry x="180" y="210" width="450" height="280" as="geometry" />
        </mxCell>
      </root>
    </mxGraphModel>
  </diagram>
</mxfile>
